<svg xmlns="http://www.w3.org/2000/svg" width="532.349" height="538.076" viewBox="0 0 532.3493 538.07599"><defs><linearGradient x2="1" gradientUnits="userSpaceOnUse" gradientTransform="rotate(90.468 135.005 132.845) scale(540.0193)" id="a"><stop offset="0" stop-color="#bb3119"/><stop offset="1" stop-color="#812112"/></linearGradient><filter id="b" color-interpolation-filters="sRGB"><feColorMatrix values="0.21 0.72 0.072 0 0 0.21 0.72 0.072 0 0 0.21 0.72 0.072 0 0 0 0 0 1 0"/></filter></defs><path d="M236.04.002c-3.368 8.417-8.083 4.715-8.083 4.715L217.52 3.705l-1.684 7.408-3.367-7.072c-3.03 13.14-6.07 11.45-6.07 11.45l-8.39.3c.06.53-.16 1.7-1.04 4.08-2.36 6.4-9.09 0-9.09 0s-22.9 1.35-34.35.68-17.85-9.76-17.85-9.76l-4.38 6.07-10.78-1.34-.68-3.36-5.72 3.37-24.24-.68-2.36 2.36-3.71-4.04-6.06-.333-2.7 3.03-3.71-5.053-2.02-.34-2.02 5.39-3.37-2.69-14.48-.68-3.12-5.823C26.37 27.11 9.71 9.97 9.71 9.97L7.07 31.315l-2.02-.337-1.01-12.46 2.356-.674.674-2.02-6.06-.672L0 42.428c5.05 7.744 6.06-.338 6.06-.338l3.03 1.685c-11.448 120.88 5.053 172.735 5.053 172.735-11.786 29.97 6.734 38.386 6.734 38.386l-.674 20.204-9.092-5.05-.33 5.05 4.72 2.693-1.34 2.357c-4.71-4.04-6.39-3.03-6.39-3.03-2.69 47.814 2.02 69.026 2.02 69.026l10.44 1.684-2.36 57.242-8.08.338c-3.37 5.387-3.7 26.262-3.7 26.262 7.41 59.936-2.69 78.12-2.69 78.12l15.49 2.356-.33 7.41 3.37 1.682c.67-5.388 6.06-6.734 6.06-6.734 3.7 1.347.34 7.07.34 7.07l3.37.674 1.35-7.408h2.025l-.34 4.377 3.367.33c14.82-6.74 15.83.67 15.83.67l1.343-8.42c2.02 5.38 17.85 4.37 17.85 4.37 13.803-1.69 15.49 4.37 15.49 4.37l-.678-8.42h3.03c1.35 6.39 5.727 4.71 5.727 4.71.67-8.76 4.37-7.08 4.37-7.08 2.69 3.03 2.02 10.1 2.02 10.1l3.708 1.68c1.343-6.4 8.08-5.39 8.08-5.39l5.72-4.04v4.04h6.06l1.685-4.38c1.68 1.01 2.694 7.74 2.694 7.74h3.03l2.36-1.69 1.68 2.36c.333-3.37 4.713-5.73 4.713-5.73l4.04 6.06 3.03-1.01-.33-4.376c3.03-1.688 10.1 5.72 10.1 5.72l1.68-2.02-3.37-4.04 4.71-5.05c.332 4.04 6.73 11.11 6.73 11.11-2.36-10.44 3.7-12.12 3.7-12.12 3.706 11.782 11.45 12.12 11.45 12.12.673-4.716 2.36-5.05 2.36-5.05 9.424 10.1 28.28 1.344 28.28 1.344l12.794 20.875c3.03-3.7 11.11-3.03 11.11-3.03l-1.68-5.72c22.892-7.4 30.302 5.73 30.302 5.73l4.38-6.394 2.69-.34.33 5.05c7.74 5.39 24.912-1.01 24.912-1.01l-4.04-3.03c-1.68-4.04 49.84-3.37 49.84-3.37.334 2.36-2.024 4.04-2.024 4.04L330.66 531c12.794 8.42 23.232-2.02 23.232-2.02l1.348-5.724-4.38 1.01c2.02-5.05 7.41-3.368 7.41-3.368l-2.358 8.082c3.704 1.346 6.4-1.01 6.4-1.01l.335-5.724H365l-1.348 4.715c17.847-5.38 30.643-3.03 30.643-3.03 1.684-8.08 9.764-6.4 9.764-6.4 11.78 9.09 26.26 3.03 26.26 3.03 29.96 14.82 46.13-.33 46.13-.33 6.73 9.09 6.39-.67 6.39-.67l8.75-.34 1.34-2.69-20.21-1.68c16.5-16.5 59.6 8.42 59.6 8.42l-2.02-217.85c-22.9 2.36-14.15-5.39-14.15-5.39 4.37 3.71 6.73 1.01 6.73 1.01-1.69-15.48 3.03-24.24 3.03-24.24-6.06-4.37 2.02-23.23 2.02-23.23-10.44.67-5.39-20.2-5.39-20.2-8.76-1.68-7.41-7.74-7.41-7.74 5.72-5.72-2.36-2.36-2.36-2.36-8.42-14.81 7.07-19.53 7.07-19.53l-6.06-15.49 15.49-.33c7.07-84.18-3.03-132.33-3.03-132.33 8.08-4.37 2.02-31.65 2.02-31.65-16.5-3.36-14.82-10.44-14.82-10.44L499 13.14l-5.05-3.03c-.337 11.45-26.603-1.01-26.603-1.01C455.91 21.88 452.884 1 452.884 1c.603.087.365-.046-.253-.18-1.79-.393-6.79-.783-3.79 4.224 4.05 6.734-1.01 7.07-1.01 7.07-94.61-10.1-102.69-2.694-102.69-2.694 9.77 6.4-.33 14.48 0 16.84-17.84-.34-22.22 3.37-22.22 3.37-.33-15.15-19.52-25.25-31.31-24.24C279.82 6.4 272.75.34 272.75.34c-11.12 10.435-36.71-.338-36.71-.338zM198.017 15.79c-.035-.29-.157-.388-.305-.388-.308 0-.733.424-.733.424zM96.887 96.022c14.534-.28 21.636 7.35 21.636 7.35l39.735 27.947-2.02 2.35 8.752 8.75 2.022-1.01-4.04-5.05 8.417 4.71-2.02 3.37 1.68 1.68 3.03-2.36 3.03 3.03 5.38.33c-.68 8.75 12.79 8.08 12.79 8.08L409.1 300.68l-2.693 3.03 5.725 4.714-3.37-.334-9.762-4.04-.337 4.376 25.928 2.356 44.45 29.97c-2.69 60.95-34.68 101.69-34.68 101.69-67.34 4.38-79.8-25.25-79.8-25.25l-53.87-57.58 2.36-3.03-5.72-5.39.34 4.378c-5.72-11.45-12.45-15.152-12.45-15.152l1.69 5.387c-7.74-6.4-5.39-13.8-5.39-13.8l-10.1-13.13c-8.08-4.38-2.36 2.354-2.36 2.354l7.74 8.75-2.01 3.03s-13.462-11.45-21.882-27.28c-8.42-15.83-2.02 1.68-2.02 1.68l-52.197-56.57 4.048 3.03s5.05 6.73 2.02-1.02-12.797-6.4-12.797-6.4L62.63 108.42c14.14-9.218 25.536-12.233 34.257-12.4zm299.4 3.588c7.746.145 11.645 3.09 11.645 3.09l23.404 17.17-.168 2.19-3.537-1.01s-3.03 1.515-1.68 6.735c1.35 5.22 2.7-.674 2.7-.674l-.33-2.69 3.03-.17-10.77 69.2-4.37.34-2.86-3.7h-5.05s1.35-10.1-4.04-10.27c-5.39-.17-2.52 3.37-2.52 3.37l4.21 2.02-1.18 2.36-88.39-67.85s50.68-12.79 67.01-18.01c5.1-1.63 9.42-2.14 12.94-2.08zM103.543 323.925L208.6 425.445l-74.415 23.906-4.545-2.86s-1.124 4.67-5.673 3.17c-1.515.49-2.578-1.31-2.578-1.31.96.65 1.81 1.06 2.57 1.31.97-.31 2.13-1.55 3.31-4.84 0 0-1.18-2.69-2.86 0l-1.18 2.53-.34-4.88-3.03 2.02-2.36-.33-.51 4.38-44.45-33s-6.4-2.35-1.35-17.67c5.05-15.32 32.32-73.91 32.32-73.91z" fill="url(#a)" filter="url(#b)"/></svg>